#!OML:ASF H:\LiuWeirdWalks\Patient Classification 1\Patient 1\Session 1\male.ASF
:FULLY-SPECIFIED
:DEGREES
419
root 2.87186 18.7211 13.9448 5.4393 -5.80254 -5.54921
lowerback 12.2122 2.28171 -3.02457
upperback -3.75547 2.88412 3.00764
thorax -11.2991 1.7214 4.36127
lowerneck -22.1147 1.27357 4.7978
upperneck 26.0479 1.49926 -4.70083
head 12.3721 0.508168 -2.34756
rclavicle -3.46922e-014 -7.21837e-015
rhumerus -54.8723 20.5091 -74.2691
rradius 77.7734
rwrist -12.6452
rhand -14.7212 4.72665
rfingers 7.12502
rthumb 11.4336 -24.9416
lclavicle -3.46922e-014 -7.21837e-015
lhumerus -40.4089 -14.2159 86.9493
lradius 49.4437
lwrist 4.02199
lhand -19.6433 -8.84224
lfingers 7.12502
lthumb 6.68417 21.0323
rfemur -45.3311 -20.4481 11.834
rtibia 96.6394
rfoot -11.6637 -8.31485
rtoes -10.0593
lfemur 10.9713 -3.39528 -26.1763
ltibia 19.032
lfoot 20.6665 4.96475
ltoes -30.6512
420
root 2.90284 18.8777 14.2079 5.17502 -5.62022 -5.67044
lowerback 12.0984 2.28511 -2.54366
upperback -3.71038 2.97467 3.06488
thorax -11.1643 1.73016 4.13203
lowerneck -21.8486 1.17365 4.62355
upperneck 26.0256 1.48339 -4.86785
head 12.3088 0.463489 -2.3827
rclavicle 3.24733e-015 -1.98785e-014
rhumerus -55.6264 20.3933 -74.4675
rradius 77.3081
rwrist -13.1806
rhand -14.665 4.68814
rfingers 7.12502
rthumb 11.4879 -24.9771
lclavicle 3.24733e-015 -1.98785e-014
lhumerus -40.9468 -14.0073 87.4205
lradius 48.6389
lwrist 3.88672
lhand -19.5533 -8.7841
lfingers 7.12502
lthumb 6.77106 21.0876
rfemur -44.0123 -20.325 11.7216
rtibia 95.5968
rfoot -11.0446 -7.95898
rtoes -10.0747
lfemur 9.77618 -3.39419 -25.8614
ltibia 21.4741
lfoot 24.0514 3.39121
ltoes -27.355
421
root 2.93008 19.0257 14.466 4.9058 -5.3203 -5.8189
lowerback 12.049 2.28911 -2.04222
upperback -3.61049 3.06595 3.12292
thorax -11.0046 1.73736 3.89104
lowerneck -21.7821 1.05104 4.41269
upperneck 26.0281 1.42353 -4.98259
head 12.292 0.400853 -2.40042
rclavicle -1.33869e-014 9.93923e-017
rhumerus -56.248 20.126 -74.609
rradius 76.7146
rwrist -13.6664
rhand -14.6241 4.65082
rfingers 7.12502
rthumb 11.5273 -25.0122
lclavicle -1.33869e-014 9.93923e-017
lhumerus -41.256 -13.8531 87.8698
lradius 47.7846
lwrist 3.88792
lhand -19.5022 -8.70365
lfingers 7.12502
lthumb 6.82042 21.1665
rfemur -42.5117 -20.1513 11.639
rtibia 94.4286
rfoot -10.4521 -7.64471
rtoes -10.1462
lfemur 8.24017 -3.2947 -25.4387
ltibia 24.5291
lfoot 26.1807 1.65968
ltoes -23.6011
422
root 2.95406 19.1619 14.719 4.62541 -4.92105 -6.03394
lowerback 12.0693 2.27586 -1.50167
upperback -3.45339 3.13817 3.18906
thorax -10.8182 1.73307 3.63983
lowerneck -21.9329 0.928608 4.20843
upperneck 26.0934 1.33547 -5.03352
head 12.3417 0.332844 -2.40241
rclavicle 8.84592e-015 -7.7526e-015
rhumerus -56.71 19.7555 -74.727
rradius 76.0099
rwrist -14.0364
rhand -14.5546 4.6066
rfingers 7.12502
rthumb 11.5943 -25.0527
lclavicle 8.84592e-015 -7.7526e-015
lhumerus -41.3677 -13.6972 88.242
lradius 46.9103
lwrist 3.96441
lhand -19.4772 -8.63877
lfingers 7.12502
lthumb 6.84454 21.2306
rfemur -40.8505 -19.9085 11.6315
rtibia 93.1606
rfoot -9.91064 -7.38005
rtoes -10.2796
lfemur 6.49177 -3.13258 -24.895
ltibia 27.9823
lfoot 26.9541 -0.0477471
ltoes -20.1334
423
root 2.97482 19.2839 14.9665 4.33385 -4.45994 -6.33756
lowerback 12.1219 2.20782 -0.963009
upperback -3.28486 3.13751 3.27693
thorax -10.6342 1.69634 3.42889
lowerneck -21.9902 0.854933 4.14582
upperneck 26.1462 1.26575 -5.07458
head 12.3699 0.289661 -2.42083
rclavicle 1.2101e-014 3.13086e-014
rhumerus -57.085 19.4151 -74.9278
rradius 75.2038
rwrist -14.2294
rhand -14.4449 4.56719
rfingers 7.12502
rthumb 11.7001 -25.0861
lclavicle 1.2101e-014 3.13086e-014
lhumerus -41.4601 -13.4024 88.4706
lradius 46.0756
lwrist 4.04552
lhand -19.4281 -8.54201
lfingers 7.12502
lthumb 6.89188 21.3258
rfemur -39.0689 -19.568 11.7334
rtibia 91.813
rfoot -9.44375 -7.17615
rtoes -10.468
lfemur 4.61152 -2.91375 -24.2253
ltibia 31.6252
lfoot 26.5183 -1.50569
ltoes -17.54
424
root 2.99316 19.3915 15.2097 4.03576 -3.96332 -6.76203
lowerback 12.2008 2.12478 -0.37199
upperback -3.10278 3.12824 3.40255
thorax -10.4508 1.65495 3.23061
lowerneck -22.0004 0.785832 4.12262
upperneck 26.1843 1.17795 -5.07863
head 12.3817 0.248014 -2.43412
rclavicle -3.23646e-014 -6.16232e-015
rhumerus -57.3961 19.0406 -75.1272
rradius 74.3307
rwrist -14.2688
rhand -14.2759 4.50133
rfingers 7.12502
rthumb 11.863 -25.1426
lclavicle -3.23646e-014 -6.16232e-015
lhumerus -41.5307 -13.0282 88.6296
lradius 45.2894
lwrist 4.04673
lhand -19.3704 -8.44531
lfingers 7.12502
lthumb 6.9476 21.4207
rfemur -37.1912 -19.1158 11.9917
rtibia 90.391
rfoot -9.04376 -7.04849
rtoes -10.6565
lfemur 2.6549 -2.63676 -23.4028
ltibia 35.2585
lfoot 25.2319 -2.54926
ltoes -16.0069
425
root 3.01058 19.4853 15.45 3.72554 -3.46064 -7.31357
lowerback 12.3155 2.04411 0.289019
upperback -2.94925 3.1397 3.57456
thorax -10.322 1.62289 3.0378
lowerneck -21.8239 0.69715 4.09201
upperneck 26.1922 1.05963 -5.04695
head 12.342 0.198848 -2.43525
rclavicle -1.00448e-014 -7.85199e-015
rhumerus -57.752 18.6378 -75.3188
rradius 73.4103
rwrist -14.1833
rhand -14.0753 4.43703
rfingers 7.12502
rthumb 12.0565 -25.1957
lclavicle -1.00448e-014 -7.85199e-015
lhumerus -41.6932 -12.5896 88.7803
lradius 44.575
lwrist 3.9649
lhand -19.3005 -8.31535
lfingers 7.12502
lthumb 7.01508 21.5484
rfemur -35.2298 -18.551 12.4158
rtibia 88.893
rfoot -8.69839 -7.0097
rtoes -10.822
lfemur 0.683703 -2.27618 -22.4265
ltibia 38.6934
lfoot 23.4048 -3.15627
ltoes -15.4806
426
root 3.02688 19.5663 15.6889 3.41618 -2.94716 -7.95708
lowerback 12.4485 1.96083 0.970017
upperback -2.80906 3.15631 3.7844
thorax -10.2213 1.59493 2.87341
lowerneck -21.5449 0.607536 4.0989
upperneck 26.166 0.930505 -5.0203
head 12.2678 0.148907 -2.44456
rclavicle -2.78423e-014 -2.26615e-014
rhumerus -58.0889 18.2134 -75.5019
rradius 72.4268
rwrist -14.0125
rhand -13.8572 4.36438
rfingers 7.12502
rthumb 12.2667 -25.2559
lclavicle -2.78423e-014 -2.26615e-014
lhumerus -41.9072 -12.09 88.9076
lradius 43.9353
lwrist 3.85356
lhand -19.2473 -8.14157
lfingers 7.12502
lthumb 7.0664 21.7205
rfemur -33.2105 -17.9136 12.9785
rtibia 87.3254
rfoot -8.39927 -7.06188
rtoes -10.8867
lfemur -1.27408 -1.84445 -21.3314
ltibia 41.7637
lfoot 21.268 -3.37154
ltoes -15.542
427
root 3.04218 19.6362 15.9283 3.10927 -2.43286 -8.68928
lowerback 12.6134 1.92443 1.72142
upperback -2.67401 3.25356 4.03198
thorax -10.1478 1.6038 2.69248
lowerneck -21.2829 0.452388 3.98419
upperneck 26.1133 0.735693 -4.94656
head 12.1824 0.0633686 -2.42516
rclavicle -4.09124e-014 -2.17669e-014
rhumerus -58.4105 17.6553 -75.5747
rradius 71.3894
rwrist -13.8463
rhand -13.6762 4.28919
rfingers 7.12502
rthumb 12.4413 -25.3205
lclavicle -4.09124e-014 -2.17669e-014
lhumerus -42.1149 -11.6591 89.1122
lradius 43.3434
lwrist 3.72998
lhand -19.1964 -7.92467
lfingers 7.12502
lthumb 7.1156 21.9357
rfemur -31.1421 -17.2194 13.6853
rtibia 85.6897
rfoot -8.13991 -7.21891
rtoes -10.8505
lfemur -3.17685 -1.35836 -20.1269
ltibia 44.3314
lfoot 19.0254 -3.40743
ltoes -15.6536
